<svg width="25" height="25" viewBox="0 0 25 25" fill="none" xmlns="http://www.w3.org/2000/svg">
<path d="M24.2356 7.97636C24.178 6.69854 23.9715 5.82424 23.6787 5.06043C23.3714 4.2726 22.9633 3.60006 22.296 2.93713C21.6287 2.2742 20.9613 1.85626 20.174 1.55362C19.4106 1.25578 18.5368 1.05402 17.2598 0.996374C15.9779 0.938728 15.5698 0.924316 12.3148 0.924316C9.05495 0.924316 8.64686 0.938728 7.36981 0.996374C6.09275 1.05402 5.21898 1.26059 4.45563 1.55362C3.66347 1.86107 2.99133 2.26939 2.3288 2.93713C1.66627 3.60486 1.24859 4.2726 0.946125 5.06043C0.653267 5.82424 0.446826 6.69854 0.389214 7.97636C0.331603 9.25898 0.3172 9.66731 0.3172 12.9243C0.3172 16.1861 0.331603 16.5945 0.389214 17.8723C0.446826 19.1501 0.653267 20.0244 0.946125 20.7882C1.25339 21.576 1.66147 22.2486 2.3288 22.9115C2.99133 23.5792 3.66347 23.9924 4.45083 24.295C5.21418 24.5929 6.08795 24.7946 7.36501 24.8523C8.64687 24.9099 9.05495 24.9243 12.31 24.9243C15.5698 24.9243 15.9779 24.9099 17.255 24.8523C18.532 24.7946 19.4058 24.588 20.1692 24.295C20.9565 23.9876 21.6287 23.5792 22.2912 22.9115C22.9537 22.2438 23.3714 21.576 23.6739 20.7882C23.9715 20.0244 24.1732 19.1501 24.2308 17.8723C24.2884 16.5896 24.3028 16.1813 24.3028 12.9243C24.3028 9.66731 24.2932 9.25418 24.2356 7.97636ZM22.08 17.7762C22.0271 18.9483 21.8303 19.5872 21.6671 20.0052C21.451 20.5624 21.187 20.966 20.7645 21.3887C20.342 21.8114 19.9435 22.066 19.3818 22.2918C18.9593 22.4551 18.3208 22.6521 17.1542 22.7049C15.8915 22.7626 15.5122 22.777 12.3052 22.777C9.09816 22.777 8.71888 22.7626 7.45623 22.7049C6.28479 22.6521 5.64627 22.4551 5.22858 22.2918C4.67167 22.0756 4.26839 21.8114 3.84591 21.3887C3.42342 20.966 3.16897 20.5672 2.94332 20.0052C2.78009 19.5824 2.58325 18.9435 2.53044 17.7762C2.47283 16.5128 2.45843 16.1333 2.45843 12.9243C2.45843 9.71535 2.47283 9.33585 2.53044 8.07244C2.58325 6.9003 2.78009 6.26139 2.94332 5.84345C3.15937 5.28621 3.42342 4.88268 3.84591 4.45995C4.26839 4.03721 4.66687 3.7826 5.22858 3.55682C5.65107 3.39349 6.28959 3.19653 7.45623 3.14369C8.71888 3.08605 9.09816 3.07163 12.3052 3.07163C15.5122 3.07163 15.8915 3.08605 17.1542 3.14369C18.3256 3.19653 18.9641 3.39349 19.3818 3.55682C19.9387 3.773 20.342 4.03721 20.7645 4.45995C21.187 4.88268 21.4414 5.2814 21.6671 5.84345C21.8303 6.26619 22.0271 6.9051 22.08 8.07244C22.1376 9.33585 22.152 9.71535 22.152 12.9243C22.152 16.1333 22.1328 16.5128 22.08 17.7762Z" fill="url(#paint0_linear_708_284)"/>
<path d="M12.3052 6.7561C8.89656 6.7561 6.14081 9.51831 6.14081 12.9242C6.14081 16.335 8.90136 19.0924 12.3052 19.0924C15.7091 19.0924 18.4697 16.3254 18.4697 12.9242C18.4697 9.51351 15.7139 6.7561 12.3052 6.7561ZM12.3052 16.9258C10.0968 16.9258 8.30604 15.134 8.30604 12.9242C8.30604 10.7145 10.0968 8.92264 12.3052 8.92264C14.5137 8.92264 16.3044 10.7145 16.3044 12.9242C16.3044 15.134 14.5137 16.9258 12.3052 16.9258Z" fill="url(#paint1_linear_708_284)"/>
<path d="M18.7097 7.95726C19.5051 7.95726 20.15 7.31203 20.15 6.5161C20.15 5.72018 19.5051 5.07495 18.7097 5.07495C17.9142 5.07495 17.2694 5.72018 17.2694 6.5161C17.2694 7.31203 17.9142 7.95726 18.7097 7.95726Z" fill="#BC30A0"/>
<path d="M0.302795 12.9243C0.302795 16.1861 0.317198 16.5945 0.37481 17.8723C0.432421 19.1501 0.638863 20.0244 0.931721 20.7882C1.23898 21.576 1.64706 22.2486 2.3144 22.9115C2.97693 23.5744 3.64906 23.9924 4.43642 24.295C5.19977 24.5929 6.07355 24.7946 7.35061 24.8523C8.63246 24.9099 9.04054 24.9243 12.2956 24.9243C15.5554 24.9243 15.9635 24.9099 17.2406 24.8523C18.5176 24.7946 19.3914 24.588 20.1548 24.295C20.9421 23.9876 21.6143 23.5792 22.2768 22.9115C22.9393 22.2486 23.357 21.576 23.6595 20.7882C23.9571 20.0244 24.1588 19.1501 24.2164 17.8723C24.274 16.5896 24.2884 16.1813 24.2884 12.9243C24.2884 9.66251 24.274 9.25418 24.2164 7.97636C24.1588 6.69854 23.9523 5.82424 23.6595 5.06043C23.3522 4.2726 22.9441 3.60006 22.2768 2.93713C21.6191 2.26939 20.9469 1.85626 20.1596 1.55362C19.3962 1.25578 18.5224 1.05402 17.2454 0.996374C15.9635 0.938728 15.5554 0.924316 12.3004 0.924316C9.04054 0.924316 8.63246 0.938728 7.35541 0.996374C6.07835 1.05402 5.20458 1.26059 4.44122 1.55362C3.65387 1.86107 2.98173 2.26939 2.3192 2.93713C1.65667 3.60486 1.23898 4.2726 0.936522 5.06043C0.638863 5.82424 0.432421 6.69854 0.37481 7.97636C0.317198 9.25418 0.302795 9.66251 0.302795 12.9243ZM2.46803 12.9243C2.46803 9.72015 2.48243 9.33585 2.54004 8.07244C2.59285 6.9003 2.78969 6.26139 2.95293 5.84345C3.16897 5.28621 3.43302 4.88268 3.85551 4.45995C4.27799 4.03721 4.67647 3.7826 5.23818 3.55682C5.66067 3.39349 6.29919 3.19653 7.46583 3.14369C8.72848 3.08605 9.10776 3.07163 12.3148 3.07163C15.5218 3.07163 15.9011 3.08605 17.1638 3.14369C18.3352 3.19653 18.9737 3.39349 19.3914 3.55682C19.9483 3.773 20.3516 4.03721 20.7741 4.45995C21.1966 4.88268 21.451 5.2814 21.6767 5.84345C21.8399 6.26619 22.0367 6.9051 22.0896 8.07244C22.1472 9.33585 22.1616 9.71535 22.1616 12.9243C22.1616 16.1333 22.1472 16.5128 22.0896 17.7762C22.0367 18.9483 21.8399 19.5872 21.6767 20.0052C21.4606 20.5624 21.1966 20.966 20.7741 21.3887C20.3516 21.8114 19.9531 22.066 19.3914 22.2918C18.9689 22.4551 18.3304 22.6521 17.1638 22.7049C15.9011 22.7626 15.5218 22.777 12.3148 22.777C9.10776 22.777 8.72848 22.7626 7.46583 22.7049C6.29439 22.6521 5.65587 22.4551 5.23818 22.2918C4.68127 22.0756 4.27799 21.8114 3.85551 21.3887C3.43302 20.966 3.17857 20.5672 2.95293 20.0052C2.78969 19.5824 2.59285 18.9435 2.54004 17.7762C2.47763 16.5128 2.46803 16.1285 2.46803 12.9243Z" fill="url(#paint2_linear_708_284)"/>
<defs>
<linearGradient id="paint0_linear_708_284" x1="20.5983" y1="2.75952" x2="3.23584" y2="24.0319" gradientUnits="userSpaceOnUse">
<stop stop-color="#AE3DAE"/>
<stop offset="0.0468721" stop-color="#B23BA6"/>
<stop offset="0.1216" stop-color="#BD368E"/>
<stop offset="0.2148" stop-color="#CE2E69"/>
<stop offset="0.3216" stop-color="#E62335"/>
<stop offset="0.418" stop-color="#FF1800"/>
</linearGradient>
<linearGradient id="paint1_linear_708_284" x1="15.2451" y1="7.9771" x2="8.93772" y2="18.5756" gradientUnits="userSpaceOnUse">
<stop stop-color="#E12F6A"/>
<stop offset="0.1705" stop-color="#EA3751"/>
<stop offset="0.3563" stop-color="#F13D3E"/>
<stop offset="0.5467" stop-color="#F64133"/>
<stop offset="0.7469" stop-color="#F7422F"/>
<stop offset="0.7946" stop-color="#F74C2F"/>
<stop offset="0.8743" stop-color="#F7652F"/>
<stop offset="0.9757" stop-color="#F78F2E"/>
<stop offset="1" stop-color="#F79A2E"/>
</linearGradient>
<linearGradient id="paint2_linear_708_284" x1="17.7409" y1="-0.0637147" x2="7.11669" y2="25.2606" gradientUnits="userSpaceOnUse">
<stop offset="0.2341" stop-color="#9E35A5" stop-opacity="0"/>
<stop offset="0.4512" stop-color="#D42F7F" stop-opacity="0.5"/>
<stop offset="0.7524" stop-color="#F7772E"/>
<stop offset="0.9624" stop-color="#FEF780"/>
</linearGradient>
</defs>
</svg>
