<svg width="25" height="25" viewBox="0 0 25 25" fill="none" xmlns="http://www.w3.org/2000/svg">
<g clip-path="url(#clip0_708_273)">
<path d="M23.8085 7.15373C23.5317 6.12573 22.7211 5.31518 21.6931 5.03842C19.8151 4.52441 12.3027 4.52441 12.3027 4.52441C12.3027 4.52441 4.79042 4.52441 2.91234 5.01865C1.90411 5.29542 1.0738 6.12573 0.797027 7.15373C0.302795 9.03181 0.302795 12.9264 0.302795 12.9264C0.302795 12.9264 0.302795 16.8407 0.797027 18.699C1.0738 19.727 1.88434 20.5375 2.91234 20.8143C4.81019 21.3283 12.3027 21.3283 12.3027 21.3283C12.3027 21.3283 19.8151 21.3283 21.6931 20.8341C22.7211 20.5573 23.5317 19.7468 23.8085 18.7188C24.3027 16.8407 24.3027 12.9461 24.3027 12.9461C24.3027 12.9461 24.3225 9.03181 23.8085 7.15373Z" fill="#FF0000"/>
<path d="M9.91064 16.5244L16.1577 12.9264L9.91064 9.32837V16.5244Z" fill="white"/>
</g>
<defs>
<clipPath id="clip0_708_273">
<rect x="0.302795" y="0.924316" width="24" height="24" rx="6" fill="white"/>
</clipPath>
</defs>
</svg>
