<svg width="25" height="25" viewBox="0 0 25 25" fill="none" xmlns="http://www.w3.org/2000/svg">
<g clip-path="url(#clip0_708_278)">
<path d="M17.4946 9.58778C19.0379 10.695 20.9286 11.3464 22.9706 11.3464V7.40293C22.5842 7.40301 22.1987 7.36257 21.8206 7.28218V10.3862C19.7788 10.3862 17.8883 9.73481 16.3446 8.62772V16.6752C16.3446 20.7009 13.0927 23.9642 9.08145 23.9642C7.58477 23.9642 6.19367 23.5101 5.03809 22.7314C6.357 24.0847 8.19632 24.9243 10.2312 24.9243C14.2427 24.9243 17.4947 21.661 17.4947 17.6351V9.58778H17.4946ZM18.9132 5.60931C18.1245 4.74454 17.6066 3.62699 17.4946 2.39149V1.88428H16.4048C16.6791 3.4546 17.6148 4.79619 18.9132 5.60931ZM7.57517 19.6421C7.1345 19.0623 6.89636 18.3529 6.89742 17.6236C6.89742 15.7823 8.38483 14.2894 10.2199 14.2894C10.5619 14.2894 10.9018 14.3419 11.2277 14.4457V10.4141C10.8469 10.3617 10.4625 10.3395 10.0782 10.3476V13.4856C9.75206 13.3818 9.41195 13.3291 9.06988 13.3295C7.23482 13.3295 5.7475 14.8222 5.7475 16.6637C5.7475 17.9657 6.49096 19.093 7.57517 19.6421Z" fill="#FF004F"/>
<path d="M16.3445 8.62764C17.8883 9.73473 19.7787 10.3862 21.8206 10.3862V7.28209C20.6808 7.03845 19.6718 6.44072 18.9132 5.60931C17.6146 4.7961 16.679 3.45452 16.4047 1.88428H13.5421V17.6349C13.5357 19.4711 12.0508 20.9579 10.2197 20.9579C9.14062 20.9579 8.182 20.4417 7.57488 19.6421C6.49074 19.093 5.74728 17.9656 5.74728 16.6637C5.74728 14.8224 7.23461 13.3295 9.06967 13.3295C9.42126 13.3295 9.76013 13.3845 10.078 13.4857V10.3477C6.13727 10.4294 2.96796 13.6608 2.96796 17.635C2.96796 19.6189 3.75719 21.4174 5.03812 22.7314C6.1937 23.5101 7.5848 23.9643 9.08148 23.9643C13.0928 23.9643 16.3446 20.7009 16.3446 16.6752V8.62764H16.3445Z" fill="black"/>
<path d="M21.8206 7.28212V6.4428C20.7928 6.44437 19.7852 6.15551 18.9132 5.60925C19.6851 6.45738 20.7016 7.04218 21.8206 7.28212ZM16.4047 1.8843C16.3786 1.73423 16.3585 1.58317 16.3445 1.43153V0.924316H12.3921V16.6751C12.3858 18.5111 10.901 19.9979 9.06969 19.9979C8.53205 19.9979 8.02444 19.8698 7.5749 19.6422C8.18202 20.4418 9.14065 20.9579 10.2197 20.9579C12.0507 20.9579 13.5358 19.4712 13.5422 17.635V1.8843H16.4047ZM10.0782 10.3477V9.45421C9.74793 9.40891 9.41496 9.38617 9.08158 9.38634C5.06997 9.38625 1.81805 12.6497 1.81805 16.6751C1.81805 19.1988 3.09611 21.423 5.03822 22.7313C3.75729 21.4173 2.96806 19.6187 2.96806 17.6349C2.96806 13.6608 6.13729 10.4294 10.0782 10.3477Z" fill="#00F2EA"/>
</g>
<defs>
<clipPath id="clip0_708_278">
<rect x="0.302795" y="0.924316" width="24" height="24" rx="6" fill="white"/>
</clipPath>
</defs>
</svg>
